<?xml version="1.0" encoding="utf-8"?>
<!-- Generator: Adobe Illustrator 18.1.0, SVG Export Plug-In . SVG Version: 6.00 Build 0)  -->
<svg version="1.1" id="Layer_1" xmlns="http://www.w3.org/2000/svg" xmlns:xlink="http://www.w3.org/1999/xlink" x="0px" y="0px"
	 viewBox="0 90 612 612" enable-background="new 0 90 612 612" xml:space="preserve">
<g id="_x33__46_">
	<g>
		<path fill="#7E7773" d="M535.5,185.6H420.8v-38.2c0-21-17.2-38.2-38.2-38.2h-153c-21,0-38.2,17.2-38.2,38.2v38.2H76.5
			C34.4,185.6,0,220.1,0,262.1v344.2c0,42.1,34.4,76.5,76.5,76.5h459c42.1,0,76.5-34.4,76.5-76.5V262.1
			C612,220.1,577.6,185.6,535.5,185.6z M229.5,166.5c0-11.5,7.6-19.1,19.1-19.1h114.8c11.5,0,19.1,7.7,19.1,19.1v19.1h-153
			L229.5,166.5L229.5,166.5z M573.8,606.4c0,21-17.2,38.2-38.2,38.2h-459c-21,0-38.2-17.2-38.2-38.2V396h193.2
			c-1.9,5.7-1.9,13.4-1.9,19.1c0,42.1,34.4,76.5,76.5,76.5s76.5-34.4,76.5-76.5c0-5.7-1.9-13.4-1.9-19.1H574v210.4H573.8z
			 M267.8,415.1c0-7.6,1.9-13.4,5.7-19.1h65c3.8,5.7,5.7,11.5,5.7,19.1c0,21-17.2,38.2-38.2,38.2S267.8,436.2,267.8,415.1z
			 M573.8,357.8H38.2v-95.6c0-21,17.2-38.2,38.2-38.2h459c21,0,38.2,17.2,38.2,38.2v95.6H573.8z"/>
	</g>
</g>
</svg>
