<?xml version="1.0" encoding="utf-8"?>
<!-- Generator: Adobe Illustrator 18.1.0, SVG Export Plug-In . SVG Version: 6.00 Build 0)  -->
<svg version="1.1" id="Layer_1" xmlns="http://www.w3.org/2000/svg" xmlns:xlink="http://www.w3.org/1999/xlink" x="0px" y="0px"
	 viewBox="0 90 612 612" enable-background="new 0 90 612 612" xml:space="preserve">
<g id="_x34__44_">
	<g>
		<path fill="#7E7773" d="M248.6,338.6c15.3,0,28.7-13.4,28.7-28.7s-13.4-28.7-28.7-28.7s-28.7,13.4-28.7,28.7
			S233.3,338.6,248.6,338.6z M133.9,338.6c15.3,0,28.7-13.4,28.7-28.7s-13.4-28.7-28.7-28.7s-28.7,13.4-28.7,28.7
			S118.6,338.6,133.9,338.6z M363.4,338.6c15.3,0,28.7-13.4,28.7-28.7s-13.4-28.7-28.7-28.7s-28.7,13.4-28.7,28.7
			S348.1,338.6,363.4,338.6z M193.2,524.1c15.3,1.9,47.8,5.7,65,5.7c137.7,0,229.5-101.4,229.5-221.9S372.9,90,258.2,90
			C120.5,90,9.6,187.5,9.6,308c0,68.9,26.8,128.1,76.5,172.1v107.1L193.2,524.1z M47.8,309.9c0-99.4,91.8-181.7,210.4-181.7
			c95.6,0,191.2,82.2,191.2,181.7s-74.6,181.7-191.2,181.7c-17.2,0-53.6-1.9-68.9-5.7l-65,44V463C78.4,424.7,47.8,373.1,47.8,309.9z
			 M524,264c0,5.7,1.9,11.5,1.9,17.2c0,11.5-1.9,24.9-3.8,36.3c24.9,30.6,42.1,66.9,42.1,107.1c0,63.1-38.2,120.5-95.6,153v66.9
			l-65-44c-15.3,3.8-32.5,5.7-49.7,5.7c-49.7,0-76.5-15.3-110.9-40.2c-11.5,1.9-21,1.9-32.5,1.9c-7.6,0-15.3,0-22.9-1.9
			c45.9,44,91.8,72.7,166.4,72.7c15.3,0,30.6-1.9,45.9-3.8L506.8,702V593c57.4-40.2,95.6-101.4,95.6-172.1
			C602.4,359.7,571.8,304.2,524,264z"/>
	</g>
</g>
</svg>
