<?xml version="1.0" encoding="utf-8"?>
<!-- Generator: Adobe Illustrator 18.1.0, SVG Export Plug-In . SVG Version: 6.00 Build 0)  -->
<svg version="1.1" id="Layer_1" xmlns="http://www.w3.org/2000/svg" xmlns:xlink="http://www.w3.org/1999/xlink" x="0px" y="0px"
	 viewBox="0 0 612 792" enable-background="new 0 0 612 792" xml:space="preserve">
<g id="_x33__44_">
	<g>
		<path fill="#7E7773" d="M306,90C137.7,90,0,227.7,0,396s137.7,306,306,306s306-137.7,306-306S474.3,90,306,90z M527.9,246.8
			c24.9,38.2,42.1,82.2,45.9,130.1h-153c0-36.3-3.8-70.8-9.6-103.3C451.4,267.9,491.5,258.3,527.9,246.8z M501.1,212.4
			c-30.6,9.6-65,17.2-99.5,22.9c-7.6-34.4-19.1-68.8-30.6-99.4C422.7,149.3,466.6,176.1,501.1,212.4z M229.5,376.9
			c1.9-34.4,3.8-66.9,9.6-99.4c22.9,1.9,44,3.8,66.9,3.8c23,0,44-1.9,65-3.8c5.7,32.5,9.6,65,9.6,99.4H229.5z M382.5,415.1
			c-1.9,34.4-3.8,66.9-9.6,99.5c-23-1.9-44-3.8-66.9-3.8c-22.9,0-44,1.9-65,3.8c-5.7-32.5-9.6-65-9.6-99.5H382.5z M286.9,128.2
			c5.7,0,11.5,0,19.1,0s11.5,0,19.1,0c17.2,34.4,28.7,70.8,40.2,110.9c-21,3.8-40.2,3.8-59.3,3.8s-38.2-1.9-57.4-1.9
			C258.2,200.9,271.6,162.7,286.9,128.2z M241,135.9c-13.4,30.6-22.9,63.1-30.6,99.4c-36.3-3.8-68.8-11.5-99.4-22.9
			C145.3,176.1,189.3,149.3,241,135.9z M84.2,246.8c36.3,11.5,76.5,21,116.7,26.8c-5.7,32.5-9.6,66.9-9.6,103.3h-153
			C42.1,329.1,59.3,283.2,84.2,246.8z M84.2,545.2c-24.9-38.2-42.1-82.2-45.9-130h153c0,36.3,3.8,70.8,9.6,103.3
			C160.6,524.1,120.5,533.7,84.2,545.2z M110.9,579.6c30.6-9.6,65-17.2,99.4-23c7.6,34.4,19.1,68.9,30.6,99.5
			C189.3,642.7,145.3,615.9,110.9,579.6z M325.1,663.8c-5.7,0-11.5,0-19.1,0s-11.5,0-19.1,0c-17.2-34.4-28.7-70.8-40.2-110.9
			c19.1-1.9,38.2-1.9,57.4-1.9s38.2,1.9,57.4,1.9C353.8,591.1,340.4,629.3,325.1,663.8z M371,656.1c13.4-30.6,23-63.1,30.6-99.5
			c34.4,5.7,66.9,13.4,99.5,23C466.6,615.9,422.7,642.7,371,656.1z M527.9,545.2c-36.3-11.5-76.5-21-116.7-26.8
			c5.7-32.5,9.6-66.9,9.6-103.3h153C569.9,462.9,552.7,508.8,527.9,545.2z"/>
	</g>
</g>
</svg>
