<svg xmlns="http://www.w3.org/2000/svg" viewBox="0 0 144.1 144" enable-background="new 0 0 144.1 144"><g fill="#00B2BF"><path d="M49.6 72.2l5.4 5.9c4.6-4.3 10.6-6.7 17-6.7s12.3 2.4 17 6.7l5.4-5.9c-6.1-5.7-14-8.8-22.4-8.8-8.4 0-16.3 3.1-22.4 8.8zM61.3 84.9l10.7 11.6 10.7-11.7c-6.1-5.5-15.4-5.5-21.4.1zM38.8 60.5l5.4 5.8c7.6-7 17.4-10.9 27.8-10.9 10.4 0 20.2 3.9 27.8 10.9l5.4-5.8c-9.1-8.4-20.7-13-33.2-13-12.4 0-24.1 4.6-33.2 13zM144.1 22.5c0-12.4-10.1-22.5-22.5-22.5-6.8 0-12.9 3-17.1 7.8-9.8-4.9-20.8-7.8-32.5-7.8-39.7 0-72 32.3-72 72s32.3 72 72 72 72-32.3 72-72c0-11.7-2.8-22.7-7.8-32.5 4.8-4.1 7.9-10.2 7.9-17zm-3.2 49.5c0 38-30.9 68.9-68.9 68.9-38 .1-68.9-30.9-68.9-68.9 0-38 30.9-68.9 68.9-68.9 11 0 21.4 2.6 30.7 7.2-2.3 3.5-3.6 7.7-3.6 12.2 0 12.4 10.1 22.5 22.5 22.5 4.5 0 8.7-1.3 12.2-3.6 4.5 9.3 7.1 19.6 7.1 30.6z"/></g><path fill="#fff" d="M120.1 31.4h3v3.7h-3v-3.7zm.3-21.5h2.4v7.5l-.5 11.4h-1.3l-.5-11.4v-7.5z"/></svg>